# xmcd CD database file
#
# Track frame offsets:
#	183
#	2020
#	4483
#	10338
#	15188
#	22000
#	25893
#	32423
#	36878
#	41768
#	47375
#	48498
#	50215
#	51930
#	54483
#	60408
#	65650
#	70470
#	77608
#	81408
#	86805
#	91668
#	94735
#	98580
#	101050
#	105263
#	110223
#	112723
#	118428
#	123748
#	131275
#	136120
#	141870
#	146085
#	149760
#	152045
#	156008
#	161678
#	168815
#	176600
#	183170
#	185450
#	186635
#	187758
#	189733
#	192630
#	196948
#	201438
#	207868
#	214610
#	220395
#
# Disc length: 2973 seconds
#
# Revision: 1
# Processed by: cddbd v1.5.1PL0 Copyright (c) Steve Scherf et al.
# Submitted via: CDex 1.50beta9
#
DISCID=df0b9b33
DTITLE=Tom Kilpatricks - 50 Emerald Gems
DYEAR=2004
DGENRE=Country
TTITLE0=Come Back To Erin
TTITLE1=When Irish Eyes Are Smiling
TTITLE2=Wild Colonial
TTITLE3=The Boys From County Armagh
TTITLE4=The Holy Ground
TTITLE5=Muirsheen Durkin
TTITLE6=McAlpines Fusiliers
TTITLE7=Roses Are Red
TTITLE8=Ramblin Rose
TTITLE9=Cold Cold Heart
TTITLE10=Peter Street
TTITLE11=Six Mile Bridge
TTITLE12=wedding
TTITLE13=Pullet
TTITLE14=Field Of Athenry
TTITLE15=Isle Of Innisfree
TTITLE16=An Irish Lullabye
TTITLE17=Rose Of Clare
TTITLE18=Bally McQilty Band
TTITLE19=Kerry Dances
TTITLE20=Rocky Road To Dublin
TTITLE21=Irish Jauntin' Car
TTITLE22=When Will You Marry Me
TTITLE23=New Pair Of Shoes
TTITLE24=Agricultural Irish Girl
TTITLE25=Mick Mc Gillgans Daughter
TTITLE26=Those Endearing Young Charms
TTITLE27=Slievenamon
TTITLE28=Old Bag Road
TTITLE29=Molly Darlin'
TTITLE30=Moolight In Mayo
TTITLE31=Lovely Leitrim
TTITLE32=Mountain Dew
TTITLE33=Waiting For The Federals
TTITLE34=Salamanca Reel
TTITLE35=Jaky Laing
TTITLE36=Are You Lonesome Tonight
TTITLE37=I Just Called To Say I Love You
TTITLE38=It's Now Or Never
TTITLE39=All For Me Grog
TTITLE40=Gary  Owen
TTITLE41=Paddy Wack
TTITLE42=Red Stockings
TTITLE43=Humouer Of Donnybrook
TTITLE44=Black Porter
TTITLE45=GoodBye Mick
TTITLE46=Hi For The Beggarman
TTITLE47=Sweet Sixteen
TTITLE48=I'll Take You Home Again Kathleen
TTITLE49=Katheen So Fair And Bright 
TTITLE50=Those So Fair And Bright Charms-reprise
EXTD=YEAR: 2004
EXTT0=
EXTT1=
EXTT2=
EXTT3=
EXTT4=
EXTT5=
EXTT6=
EXTT7=
EXTT8=
EXTT9=
EXTT10=
EXTT11=
EXTT12=
EXTT13=
EXTT14=
EXTT15=
EXTT16=
EXTT17=
EXTT18=
EXTT19=
EXTT20=
EXTT21=
EXTT22=
EXTT23=
EXTT24=
EXTT25=
EXTT26=
EXTT27=
EXTT28=
EXTT29=
EXTT30=
EXTT31=
EXTT32=
EXTT33=
EXTT34=
EXTT35=
EXTT36=
EXTT37=
EXTT38=
EXTT39=
EXTT40=
EXTT41=
EXTT42=
EXTT43=
EXTT44=
EXTT45=
EXTT46=
EXTT47=
EXTT48=
EXTT49=
EXTT50=
PLAYORDER=
